<?xml version="1.0" encoding="UTF-8" standalone="no"?>
<!DOCTYPE svg PUBLIC "-//W3C//DTD SVG 1.1//EN" "http://www.w3.org/Graphics/SVG/1.1/DTD/svg11.dtd">
<svg width="100%" height="100%" viewBox="0 0 688 200" version="1.1" xmlns="http://www.w3.org/2000/svg" xmlns:xlink="http://www.w3.org/1999/xlink" xml:space="preserve" xmlns:serif="http://www.serif.com/" style="fill-rule:evenodd;clip-rule:evenodd;stroke-linejoin:round;stroke-miterlimit:2;">
    <g transform="matrix(1.057206,0,0,1.054852,-149.716214,-81.962025)">
        <path d="M389.647,121.376L373.181,121.376L373.181,221.606L420.575,221.606L420.575,206.858L389.647,206.858L389.647,121.376Z" style="fill:rgb(255,45,32);fill-rule:nonzero;"/>
        <path d="M478.706,163.902C476.605,160.561 473.623,157.937 469.757,156.027C465.892,154.118 462.001,153.163 458.088,153.163C453.026,153.163 448.398,154.094 444.198,155.955C439.997,157.816 436.394,160.372 433.387,163.616C430.38,166.862 428.04,170.609 426.371,174.855C424.699,179.104 423.865,183.568 423.865,188.244C423.865,193.018 424.699,197.504 426.371,201.703C428.04,205.905 430.38,209.628 433.387,212.872C436.394,216.118 439.996,218.671 444.198,220.532C448.397,222.393 453.026,223.324 458.088,223.324C462.001,223.324 465.892,222.369 469.757,220.461C473.623,218.553 476.606,215.928 478.706,212.586L478.706,221.607L494.313,221.607L494.313,154.882L478.706,154.882L478.706,163.902ZM477.275,196.405C476.32,198.983 474.984,201.226 473.266,203.135C471.547,205.045 469.471,206.572 467.037,207.717C464.602,208.863 461.904,209.435 458.946,209.435C455.986,209.435 453.313,208.863 450.927,207.717C448.54,206.571 446.489,205.045 444.771,203.135C443.052,201.226 441.739,198.983 440.833,196.405C439.924,193.828 439.473,191.107 439.473,188.244C439.473,185.38 439.924,182.659 440.833,180.082C441.738,177.505 443.052,175.263 444.771,173.353C446.489,171.445 448.541,169.916 450.927,168.771C453.313,167.625 455.986,167.053 458.946,167.053C461.904,167.053 464.602,167.625 467.037,168.771C469.471,169.917 471.547,171.445 473.266,173.353C474.984,175.263 476.32,177.505 477.275,180.082C478.228,182.659 478.707,185.38 478.707,188.244C478.706,191.107 478.228,193.828 477.275,196.405Z" style="fill:rgb(255,45,32);fill-rule:nonzero;"/>
        <path d="M605.569,163.902C603.468,160.561 600.486,157.937 596.62,156.027C592.755,154.118 588.864,153.163 584.951,153.163C579.889,153.163 575.261,154.094 571.061,155.955C566.86,157.816 563.257,160.372 560.25,163.616C557.243,166.862 554.903,170.609 553.234,174.855C551.562,179.104 550.728,183.568 550.728,188.244C550.728,193.018 551.562,197.504 553.234,201.703C554.903,205.905 557.243,209.628 560.25,212.872C563.257,216.118 566.859,218.671 571.061,220.532C575.26,222.393 579.889,223.324 584.951,223.324C588.864,223.324 592.755,222.369 596.62,220.461C600.486,218.553 603.469,215.928 605.569,212.586L605.569,221.607L621.176,221.607L621.176,154.882L605.569,154.882L605.569,163.902ZM604.137,196.405C603.182,198.983 601.846,201.226 600.128,203.135C598.409,205.045 596.333,206.572 593.899,207.717C591.464,208.863 588.766,209.435 585.808,209.435C582.848,209.435 580.175,208.863 577.789,207.717C575.402,206.571 573.351,205.045 571.633,203.135C569.914,201.226 568.601,198.983 567.695,196.405C566.786,193.828 566.335,191.107 566.335,188.244C566.335,185.38 566.786,182.659 567.695,180.082C568.6,177.505 569.914,175.263 571.633,173.353C573.351,171.445 575.403,169.916 577.789,168.771C580.175,167.625 582.848,167.053 585.808,167.053C588.766,167.053 591.464,167.625 593.899,168.771C596.333,169.917 598.409,171.445 600.128,173.353C601.846,175.263 603.182,177.505 604.137,180.082C605.09,182.659 605.569,185.38 605.569,188.244C605.569,191.107 605.09,193.828 604.137,196.405Z" style="fill:rgb(255,45,32);fill-rule:nonzero;"/>
        <rect x="776.781" y="121.376" width="15.606" height="100.23" style="fill:rgb(255,45,32);"/>
        <path d="M506.628,221.606L522.235,221.606L522.235,170.238L549.011,170.238L549.011,154.882L506.628,154.882L506.628,221.606Z" style="fill:rgb(255,45,32);fill-rule:nonzero;"/>
        <path d="M683.748,154.882L664.132,205.978L644.516,154.882L628.708,154.882L654.325,221.606L673.939,221.606L699.556,154.882L683.748,154.882Z" style="fill:rgb(255,45,32);fill-rule:nonzero;"/>
        <path d="M733.595,153.166C714.483,153.166 699.356,168.872 699.356,188.245C699.356,209.661 713.997,223.324 735.595,223.324C747.683,223.324 755.401,218.702 764.829,208.636L754.285,200.478C754.279,200.486 746.327,210.927 734.453,210.927C720.651,210.927 714.841,199.8 714.841,194.043L766.618,194.043C769.338,172 754.846,153.166 733.595,153.166ZM714.882,182.446C715.002,181.162 716.799,165.562 733.471,165.562C750.142,165.562 752.168,181.16 752.284,182.446L714.882,182.446Z" style="fill:rgb(255,45,32);fill-rule:nonzero;"/>
        <path d="M325.683,120.592C325.659,120.504 325.61,120.427 325.579,120.342C325.521,120.185 325.471,120.026 325.388,119.882C325.332,119.785 325.251,119.706 325.185,119.617C325.098,119.5 325.024,119.375 324.92,119.272C324.835,119.186 324.726,119.124 324.63,119.049C324.521,118.964 324.424,118.867 324.303,118.797C324.303,118.797 324.302,118.797 324.301,118.796C324.3,118.796 324.3,118.795 324.299,118.794L288.651,98.27C287.734,97.742 286.604,97.742 285.687,98.27L250.04,118.792C250.039,118.792 250.039,118.793 250.038,118.794C250.037,118.794 250.036,118.794 250.036,118.795C249.915,118.865 249.817,118.962 249.709,119.047C249.613,119.122 249.504,119.185 249.419,119.27C249.316,119.373 249.241,119.498 249.154,119.615C249.088,119.704 249.007,119.784 248.951,119.88C248.868,120.024 248.818,120.184 248.76,120.34C248.729,120.425 248.68,120.502 248.656,120.59C248.589,120.839 248.553,121.1 248.553,121.366L248.553,160.345L218.847,177.448L218.847,101.193C218.847,100.928 218.811,100.667 218.744,100.417C218.72,100.329 218.671,100.252 218.64,100.167C218.582,100.01 218.532,99.851 218.449,99.707C218.393,99.61 218.312,99.531 218.246,99.442C218.159,99.325 218.085,99.2 217.981,99.097C217.896,99.011 217.787,98.949 217.691,98.874C217.582,98.789 217.485,98.692 217.364,98.622C217.364,98.622 217.363,98.622 217.362,98.621C217.361,98.621 217.361,98.62 217.36,98.619L181.713,78.096C180.796,77.568 179.666,77.568 178.749,78.096L143.102,98.619C143.101,98.619 143.101,98.62 143.1,98.621C143.099,98.621 143.098,98.621 143.098,98.622C142.977,98.692 142.879,98.789 142.771,98.874C142.675,98.949 142.566,99.012 142.481,99.097C142.378,99.2 142.303,99.325 142.216,99.442C142.15,99.531 142.069,99.611 142.013,99.707C141.93,99.851 141.88,100.011 141.822,100.167C141.791,100.252 141.742,100.329 141.718,100.417C141.651,100.666 141.615,100.927 141.615,101.193L141.615,223.283C141.615,224.346 142.183,225.327 143.104,225.858L214.397,266.903C214.553,266.992 214.721,267.046 214.887,267.105C214.965,267.133 215.037,267.179 215.117,267.2C215.366,267.266 215.623,267.3 215.879,267.3C216.135,267.3 216.391,267.267 216.641,267.2C216.71,267.182 216.773,267.141 216.841,267.117C217.017,267.056 217.195,266.998 217.36,266.903L288.653,225.858C289.574,225.328 290.142,224.346 290.142,223.283L290.142,184.304L324.3,164.638C325.221,164.108 325.789,163.126 325.789,162.063L325.789,121.366C325.786,121.102 325.751,120.841 325.683,120.592ZM215.87,219.867L186.222,203.088L217.358,185.162L217.359,185.161L251.523,165.492L281.197,182.576L259.425,195.004L215.87,219.867ZM284.199,143.608L284.199,177.449L271.724,170.267L254.493,160.347L254.493,126.506L266.968,133.688L284.199,143.608ZM287.169,104.273L316.862,121.368L287.169,138.463L257.476,121.368L287.169,104.273ZM195.675,190.789L183.2,197.971L183.2,123.433L200.431,113.513L212.906,106.331L212.906,180.868L195.675,190.789ZM180.229,84.098L209.922,101.193L180.229,118.288L150.536,101.193L180.229,84.098ZM147.553,106.332L160.028,113.514L177.259,123.434L177.259,203.11C177.259,203.112 177.26,203.113 177.26,203.115C177.26,203.117 177.259,203.119 177.259,203.121C177.259,203.235 177.291,203.342 177.304,203.454C177.321,203.6 177.325,203.748 177.363,203.888C177.364,203.89 177.364,203.893 177.365,203.895C177.397,204.012 177.459,204.117 177.505,204.229C177.556,204.353 177.593,204.484 177.661,204.6C177.662,204.603 177.663,204.606 177.665,204.609C177.726,204.714 177.814,204.8 177.887,204.897C177.968,205.002 178.036,205.117 178.131,205.211C178.134,205.214 178.136,205.218 178.139,205.221C178.223,205.304 178.329,205.363 178.423,205.436C178.529,205.519 178.625,205.614 178.743,205.683C178.747,205.685 178.752,205.686 178.756,205.688C178.76,205.69 178.763,205.694 178.767,205.696L212.906,225.017L212.906,259.192L147.554,221.567L147.554,106.332L147.553,106.332ZM284.199,221.567L218.847,259.192L218.847,225.01L267.246,197.382L284.199,187.705L284.199,221.567ZM319.845,160.347L290.139,177.449L290.139,143.608L307.37,133.688L319.845,126.506L319.845,160.347Z" style="fill:rgb(255,45,32);fill-rule:nonzero;"/>
    </g>
</svg>
