<?xml version="1.0" encoding="UTF-8" standalone="no"?>
<!DOCTYPE svg PUBLIC "-//W3C//DTD SVG 1.1//EN" "http://www.w3.org/Graphics/SVG/1.1/DTD/svg11.dtd">
<svg width="100%" height="100%" viewBox="0 0 802 218" version="1.1" xmlns="http://www.w3.org/2000/svg" xmlns:xlink="http://www.w3.org/1999/xlink" xml:space="preserve" xmlns:serif="http://www.serif.com/" style="fill-rule:evenodd;clip-rule:evenodd;stroke-linejoin:round;stroke-miterlimit:2;">
    <g transform="matrix(2.174052,0,0,2.172609,-0.65439,0)">
        <g>
            <g>
                <g>
                    <g>
                        <rect x="356.885" y="66.115" width="12.217" height="9.973" style="fill:none;"/>
                        <path d="M358.929,70.674L358.229,70.674L358.229,66.991L356.969,66.991L356.969,66.39L360.189,66.39L360.189,66.991L358.929,66.991L358.929,70.674Z" style="fill:rgb(23,54,71);fill-rule:nonzero;"/>
                        <path d="M362.997,70.674L361.755,67.097L361.732,67.097C361.765,67.628 361.782,68.126 361.782,68.591L361.782,70.674L361.146,70.674L361.146,66.391L362.133,66.391L363.322,69.798L363.34,69.798L364.565,66.391L365.555,66.391L365.555,70.674L364.881,70.674L364.881,68.556C364.881,68.343 364.886,68.066 364.897,67.724C364.908,67.382 364.917,67.175 364.925,67.103L364.902,67.103L363.616,70.674L362.997,70.674Z" style="fill:rgb(23,54,71);fill-rule:nonzero;"/>
                    </g>
                </g>
            </g>
        </g>
        <g>
            <g>
                <g>
                    <g>
                        <g>
                            <path d="M50.328,97.669C24.058,97.669 2.685,76.298 2.685,50.027C2.685,23.756 24.058,2.385 50.328,2.385C76.598,2.385 97.971,23.758 97.971,50.028C97.971,76.298 76.598,97.669 50.328,97.669Z" style="fill:rgb(133,234,45);fill-rule:nonzero;"/>
                        </g>
                        <g>
                            <g>
                                <path d="M50.328,4.769C75.324,4.769 95.586,25.031 95.586,50.027C95.586,75.022 75.324,95.285 50.328,95.285C25.333,95.285 5.07,75.022 5.07,50.027C5.07,25.032 25.333,4.769 50.328,4.769M50.328,0C22.743,0 0.301,22.442 0.301,50.027C0.301,77.612 22.743,100.054 50.328,100.054C77.913,100.054 100.356,77.612 100.356,50.027C100.356,22.442 77.913,0 50.328,0Z" style="fill:rgb(23,54,71);fill-rule:nonzero;"/>
                            </g>
                        </g>
                    </g>
                </g>
            </g>
            <path d="M31.802,33.854C31.648,35.566 31.859,37.336 31.745,39.067C31.61,40.799 31.398,42.511 31.052,44.223C30.571,46.666 29.051,48.513 26.955,50.052C31.034,52.707 31.495,56.823 31.764,60.998C31.899,63.249 31.841,65.519 32.072,67.75C32.245,69.481 32.918,69.924 34.708,69.981C35.439,70 36.188,69.981 37.036,69.981L37.036,75.329C31.746,76.233 27.379,74.733 26.301,70.251C25.954,68.616 25.723,66.942 25.647,65.249C25.531,63.46 25.723,61.671 25.589,59.882C25.204,54.976 24.569,53.322 19.876,53.091L19.876,46.993C20.222,46.916 20.549,46.858 20.895,46.82C23.473,46.685 24.569,45.896 25.127,43.357C25.397,41.934 25.551,40.491 25.608,39.029C25.801,36.24 25.724,33.393 26.204,30.623C26.877,26.641 29.34,24.717 33.438,24.486C34.592,24.428 35.766,24.486 37.093,24.486L37.093,29.95C36.535,29.989 36.054,30.065 35.554,30.065C32.226,29.949 32.052,31.084 31.802,33.854ZM38.208,46.512L38.131,46.512C36.207,46.416 34.553,47.916 34.456,49.84C34.36,51.783 35.86,53.438 37.784,53.533L38.015,53.533C39.92,53.649 41.554,52.186 41.67,50.282L41.67,50.09C41.709,48.147 40.151,46.551 38.208,46.512ZM50.27,46.512C48.404,46.454 46.845,47.916 46.788,49.763C46.788,49.879 46.788,49.975 46.808,50.09C46.808,52.187 48.231,53.534 50.386,53.534C52.502,53.534 53.83,52.149 53.83,49.975C53.81,47.878 52.405,46.493 50.27,46.512ZM62.621,46.512C60.659,46.473 59.023,48.032 58.966,49.994C58.966,51.956 60.543,53.533 62.505,53.533L62.544,53.533C64.314,53.841 66.103,52.129 66.219,50.071C66.314,48.166 64.583,46.512 62.621,46.512ZM79.569,46.8C77.337,46.704 76.221,45.954 75.664,43.837C75.317,42.491 75.106,41.086 75.029,39.701C74.875,37.123 74.894,34.526 74.721,31.948C74.317,25.831 69.893,23.696 63.467,24.753L63.467,30.063C64.486,30.063 65.275,30.063 66.064,30.082C67.43,30.101 68.469,30.621 68.603,32.141C68.738,33.526 68.738,34.93 68.873,36.335C69.143,39.125 69.296,41.952 69.777,44.703C70.201,46.973 71.759,48.666 73.701,50.051C70.297,52.34 69.296,55.61 69.123,59.285C69.027,61.805 68.969,64.344 68.835,66.884C68.719,69.192 67.912,69.942 65.584,70C64.93,70.019 64.295,70.077 63.564,70.116L63.564,75.56C64.93,75.56 66.18,75.637 67.43,75.56C71.316,75.329 73.663,73.444 74.433,69.673C74.76,67.595 74.952,65.499 75.01,63.402C75.144,61.478 75.126,59.535 75.318,57.631C75.606,54.649 76.972,53.418 79.954,53.226C80.243,53.187 80.512,53.13 80.782,53.034L80.782,46.935C80.281,46.877 79.934,46.82 79.569,46.8Z" style="fill:rgb(23,54,71);fill-rule:nonzero;"/>
        </g>
        <g>
            <g>
                <path d="M152.273,58.122C152.273,62.151 150.812,65.291 147.89,67.546C144.968,69.8 141.002,70.927 135.993,70.927C130.566,70.927 126.391,70.228 123.47,68.829L123.47,63.694C125.348,64.488 127.394,65.114 129.607,65.573C131.819,66.032 134.011,66.261 136.182,66.261C139.73,66.261 142.402,65.588 144.197,64.241C145.992,62.895 146.889,61.022 146.889,58.621C146.889,57.035 146.571,55.736 145.934,54.723C145.297,53.711 144.232,52.777 142.74,51.921C141.247,51.065 138.978,50.095 135.93,49.009C131.672,47.486 128.63,45.68 126.804,43.592C124.977,41.505 124.064,38.781 124.064,35.421C124.064,31.894 125.389,29.086 128.04,26.999C130.691,24.912 134.197,23.868 138.56,23.868C143.11,23.868 147.295,24.703 151.115,26.373L149.455,31.007C145.677,29.421 142.003,28.628 138.434,28.628C135.616,28.628 133.413,29.234 131.828,30.444C130.242,31.655 129.449,33.336 129.449,35.485C129.449,37.071 129.741,38.371 130.325,39.382C130.909,40.395 131.895,41.323 133.284,42.169C134.672,43.014 136.795,43.948 139.655,44.971C144.456,46.683 147.759,48.52 149.565,50.482C151.37,52.445 152.273,54.991 152.273,58.122Z" style="fill:white;fill-rule:nonzero;"/>
                <path d="M185.288,70.301L178.995,50.169C178.599,48.938 177.857,46.141 176.772,41.778L176.522,41.778C175.687,45.431 174.957,48.249 174.33,50.231L167.849,70.3L161.838,70.3L152.477,35.986L157.925,35.986C160.137,44.607 161.823,51.171 162.981,55.679C164.14,60.187 164.802,63.224 164.969,64.789L165.219,64.789C165.448,63.6 165.819,62.06 166.33,60.171C166.841,58.282 167.285,56.785 167.661,55.678L173.954,35.985L179.589,35.985L185.726,55.678C186.895,59.268 187.688,62.284 188.105,64.726L188.355,64.726C188.438,63.975 188.663,62.816 189.028,61.251C189.393,59.686 191.569,51.263 195.556,35.985L200.941,35.985L191.454,70.299L185.288,70.299L185.288,70.301Z" style="fill:white;fill-rule:nonzero;"/>
                <path d="M225.116,70.301L224.083,65.417L223.833,65.417C222.121,67.567 220.415,69.023 218.714,69.785C217.012,70.547 214.889,70.928 212.342,70.928C208.94,70.928 206.273,70.052 204.343,68.298C202.412,66.545 201.447,64.051 201.447,60.816C201.447,53.886 206.989,50.254 218.072,49.92L223.895,49.732L223.895,47.603C223.895,44.911 223.316,42.922 222.157,41.639C220.999,40.355 219.146,39.713 216.6,39.713C213.74,39.713 210.505,40.59 206.894,42.343L205.297,38.366C206.988,37.448 208.84,36.728 210.855,36.206C212.869,35.685 214.888,35.424 216.913,35.424C221.004,35.424 224.036,36.332 226.008,38.148C227.981,39.964 228.967,42.876 228.967,46.883L228.967,70.302L225.116,70.302L225.116,70.301ZM213.375,66.638C216.61,66.638 219.152,65.751 220.999,63.977C222.846,62.203 223.77,59.719 223.77,56.525L223.77,53.425L218.573,53.644C214.44,53.79 211.46,54.432 209.634,55.569C207.807,56.707 206.894,58.476 206.894,60.876C206.894,62.754 207.463,64.185 208.601,65.165C209.737,66.148 211.329,66.638 213.375,66.638Z" style="fill:white;fill-rule:nonzero;"/>
                <path d="M264.598,35.982L264.598,39.274L258.242,40.025C258.826,40.756 259.348,41.711 259.807,42.89C260.266,44.07 260.496,45.4 260.496,46.882C260.496,50.242 259.348,52.924 257.052,54.928C254.756,56.932 251.604,57.934 247.596,57.934C246.573,57.934 245.613,57.851 244.716,57.684C242.503,58.853 241.397,60.325 241.397,62.098C241.397,63.037 241.783,63.732 242.556,64.18C243.328,64.629 244.654,64.853 246.532,64.853L252.606,64.853C256.321,64.853 259.176,65.636 261.169,67.201C263.162,68.766 264.159,71.041 264.159,74.026C264.159,77.825 262.635,80.721 259.588,82.714C256.541,84.707 252.094,85.704 246.251,85.704C241.763,85.704 238.303,84.869 235.872,83.199C233.44,81.529 232.225,79.171 232.225,76.123C232.225,74.036 232.892,72.23 234.228,70.707C235.564,69.184 237.442,68.15 239.864,67.607C238.988,67.211 238.252,66.594 237.657,65.759C237.062,64.925 236.764,63.954 236.764,62.847C236.764,61.595 237.098,60.499 237.766,59.559C238.434,58.62 239.488,57.712 240.928,56.835C239.154,56.105 237.708,54.862 236.592,53.109C235.475,51.356 234.917,49.352 234.917,47.097C234.917,43.34 236.044,40.444 238.298,38.409C240.552,36.374 243.746,35.356 247.879,35.356C249.674,35.356 251.292,35.565 252.732,35.982L264.598,35.982ZM237.234,76.062C237.234,77.919 238.017,79.329 239.582,80.29C241.147,81.249 243.391,81.729 246.313,81.729C250.675,81.729 253.905,81.077 256.003,79.773C258.101,78.468 259.149,76.699 259.149,74.465C259.149,72.607 258.574,71.319 257.427,70.598C256.279,69.878 254.118,69.518 250.946,69.518L244.716,69.518C242.357,69.518 240.521,70.081 239.206,71.209C237.891,72.336 237.234,73.954 237.234,76.062ZM240.051,46.976C240.051,49.376 240.729,51.192 242.086,52.424C243.442,53.656 245.331,54.271 247.753,54.271C252.825,54.271 255.361,51.808 255.361,46.882C255.361,41.727 252.794,39.149 247.659,39.149C245.217,39.149 243.339,39.806 242.024,41.122C240.709,42.436 240.051,44.388 240.051,46.976Z" style="fill:white;fill-rule:nonzero;"/>
                <path d="M299.137,35.982L299.137,39.274L292.781,40.025C293.365,40.756 293.887,41.711 294.346,42.89C294.805,44.07 295.035,45.4 295.035,46.882C295.035,50.242 293.887,52.924 291.591,54.928C289.295,56.932 286.143,57.934 282.135,57.934C281.112,57.934 280.152,57.851 279.255,57.684C277.042,58.853 275.936,60.325 275.936,62.098C275.936,63.037 276.322,63.732 277.095,64.18C277.867,64.629 279.193,64.853 281.071,64.853L287.145,64.853C290.86,64.853 293.715,65.636 295.708,67.201C297.701,68.766 298.698,71.041 298.698,74.026C298.698,77.825 297.174,80.721 294.127,82.714C291.08,84.707 286.633,85.704 280.79,85.704C276.302,85.704 272.842,84.869 270.411,83.199C267.979,81.529 266.764,79.171 266.764,76.123C266.764,74.036 267.431,72.23 268.767,70.707C270.103,69.184 271.981,68.15 274.403,67.607C273.527,67.211 272.791,66.594 272.196,65.759C271.601,64.925 271.303,63.954 271.303,62.847C271.303,61.595 271.637,60.499 272.305,59.559C272.973,58.62 274.027,57.712 275.467,56.835C273.693,56.105 272.247,54.862 271.131,53.109C270.014,51.356 269.456,49.352 269.456,47.097C269.456,43.34 270.583,40.444 272.837,38.409C275.091,36.374 278.285,35.356 282.418,35.356C284.213,35.356 285.831,35.565 287.271,35.982L299.137,35.982ZM271.773,76.062C271.773,77.919 272.556,79.329 274.121,80.29C275.686,81.249 277.93,81.729 280.852,81.729C285.214,81.729 288.444,81.077 290.542,79.773C292.64,78.468 293.688,76.699 293.688,74.465C293.688,72.607 293.113,71.319 291.966,70.598C290.818,69.878 288.657,69.518 285.485,69.518L279.255,69.518C276.896,69.518 275.06,70.081 273.745,71.209C272.43,72.336 271.773,73.954 271.773,76.062ZM274.59,46.976C274.59,49.376 275.268,51.192 276.625,52.424C277.981,53.656 279.87,54.271 282.292,54.271C287.364,54.271 289.9,51.808 289.9,46.882C289.9,41.727 287.333,39.149 282.198,39.149C279.756,39.149 277.878,39.806 276.563,41.122C275.248,42.436 274.59,44.388 274.59,46.976Z" style="fill:white;fill-rule:nonzero;"/>
                <path d="M316.778,70.927C311.706,70.927 307.703,69.383 304.771,66.293C301.838,63.204 300.372,58.915 300.372,53.425C300.372,47.894 301.734,43.5 304.458,40.244C307.182,36.988 310.839,35.36 315.432,35.36C319.732,35.36 323.134,36.775 325.639,39.603C328.144,42.431 329.396,46.162 329.396,50.795L329.396,54.083L305.758,54.083C305.862,58.111 306.88,61.169 308.81,63.256C310.741,65.343 313.459,66.387 316.966,66.387C320.66,66.387 324.313,65.615 327.924,64.07L327.924,68.704C326.087,69.497 324.349,70.066 322.711,70.41C321.073,70.755 319.095,70.927 316.778,70.927ZM315.37,39.712C312.615,39.712 310.418,40.609 308.779,42.404C307.14,44.199 306.175,46.683 305.883,49.856L323.823,49.856C323.823,46.579 323.093,44.069 321.632,42.326C320.17,40.584 318.083,39.712 315.37,39.712Z" style="fill:white;fill-rule:nonzero;"/>
                <path d="M350.898,35.36C352.421,35.36 353.789,35.485 355,35.735L354.28,40.557C352.86,40.244 351.608,40.088 350.523,40.088C347.747,40.088 345.373,41.215 343.4,43.469C341.427,45.723 340.441,48.531 340.441,51.891L340.441,70.301L335.244,70.301L335.244,35.987L339.534,35.987L340.129,42.342L340.379,42.342C341.652,40.109 343.186,38.387 344.982,37.176C346.775,35.966 348.747,35.36 350.898,35.36Z" style="fill:white;fill-rule:nonzero;"/>
            </g>
        </g>
    </g>
</svg>
